<?xml version="1.0" encoding="UTF-8" standalone="no"?>
<!DOCTYPE svg PUBLIC "-//W3C//DTD SVG 1.1//EN"
 "http://www.w3.org/Graphics/SVG/1.1/DTD/svg11.dtd">
<!-- Generated by graphviz version 5.0.0 (20220707.1540)
 -->
<!-- Title: dependencies Pages: 1 -->
<svg width="6377pt" height="247pt"
 viewBox="0.00 0.00 6377.00 246.80" xmlns="http://www.w3.org/2000/svg" xmlns:xlink="http://www.w3.org/1999/xlink">
<g id="graph0" class="graph" transform="scale(1 1) rotate(0) translate(4 242.8)">
<title>dependencies</title>
<polygon fill="white" stroke="transparent" points="-4,4 -4,-242.8 6373,-242.8 6373,4 -4,4"/>
<text text-anchor="middle" x="3184.5" y="-8.2" font-family="sans-serif" font-size="14.00">dependencies</text>
<g id="clust1" class="cluster">
<title>cluster_AppModule</title>
<polygon fill="none" stroke="black" stroke-dasharray="1,5" points="8,-32.8 8,-230.8 6361,-230.8 6361,-32.8 8,-32.8"/>
</g>
<g id="clust45" class="cluster">
<title>cluster_AppModule_providers</title>
<polygon fill="none" stroke="black" points="6219,-40.8 6219,-92.8 6353,-92.8 6353,-40.8 6219,-40.8"/>
</g>
<g id="clust44" class="cluster">
<title>cluster_AppModule_bootstrap</title>
<polygon fill="none" stroke="black" points="2946,-170.8 2946,-222.8 3070,-222.8 3070,-170.8 2946,-170.8"/>
</g>
<g id="clust42" class="cluster">
<title>cluster_AppModule_imports</title>
<polygon fill="none" stroke="black" points="6067,-40.8 6067,-92.8 6211,-92.8 6211,-40.8 6067,-40.8"/>
</g>
<g id="clust2" class="cluster">
<title>cluster_AppModule_declarations</title>
<polygon fill="none" stroke="black" points="16,-40.8 16,-92.8 6059,-92.8 6059,-40.8 16,-40.8"/>
</g>
<!-- AdminPanelComponent -->
<g id="node1" class="node">
<title>AdminPanelComponent</title>
<polygon fill="#ffffb3" stroke="black" points="6050.82,-84.8 5899.18,-84.8 5899.18,-48.8 6050.82,-48.8 6050.82,-84.8"/>
<text text-anchor="middle" x="5975" y="-62.6" font-family="Times,serif" font-size="14.00">AdminPanelComponent</text>
</g>
<!-- AppModule -->
<g id="node40" class="node">
<title>AppModule</title>
<polygon fill="#8dd3c7" stroke="black" points="3049.66,-149.8 3046.66,-153.8 3025.66,-153.8 3022.66,-149.8 2966.34,-149.8 2966.34,-113.8 3049.66,-113.8 3049.66,-149.8"/>
<text text-anchor="middle" x="3008" y="-127.6" font-family="Times,serif" font-size="14.00">AppModule</text>
</g>
<!-- AdminPanelComponent&#45;&gt;AppModule -->
<g id="edge1" class="edge">
<title>AdminPanelComponent&#45;&gt;AppModule</title>
<path fill="none" stroke="black" d="M5975,-84.89C5975,-107.93 5975,-144.8 5975,-144.8 5975,-144.8 3059.94,-144.8 3059.94,-144.8"/>
<polygon fill="black" stroke="black" points="3059.94,-141.3 3049.94,-144.8 3059.94,-148.3 3059.94,-141.3"/>
</g>
<!-- AppComponent -->
<g id="node2" class="node">
<title>AppComponent</title>
<polygon fill="#ffffb3" stroke="black" points="5881.94,-84.8 5776.06,-84.8 5776.06,-48.8 5881.94,-48.8 5881.94,-84.8"/>
<text text-anchor="middle" x="5829" y="-62.6" font-family="Times,serif" font-size="14.00">AppComponent</text>
</g>
<!-- AppComponent&#45;&gt;AppModule -->
<g id="edge2" class="edge">
<title>AppComponent&#45;&gt;AppModule</title>
<path fill="none" stroke="black" d="M5829,-85.05C5829,-107.82 5829,-143.8 5829,-143.8 5829,-143.8 3059.79,-143.8 3059.79,-143.8"/>
<polygon fill="black" stroke="black" points="3059.79,-140.3 3049.79,-143.8 3059.79,-147.3 3059.79,-140.3"/>
</g>
<!-- ChartsComponent -->
<g id="node3" class="node">
<title>ChartsComponent</title>
<polygon fill="#ffffb3" stroke="black" points="5757.88,-84.8 5640.12,-84.8 5640.12,-48.8 5757.88,-48.8 5757.88,-84.8"/>
<text text-anchor="middle" x="5699" y="-62.6" font-family="Times,serif" font-size="14.00">ChartsComponent</text>
</g>
<!-- ChartsComponent&#45;&gt;AppModule -->
<g id="edge3" class="edge">
<title>ChartsComponent&#45;&gt;AppModule</title>
<path fill="none" stroke="black" d="M5699,-84.96C5699,-107.15 5699,-141.8 5699,-141.8 5699,-141.8 3059.73,-141.8 3059.73,-141.8"/>
<polygon fill="black" stroke="black" points="3059.73,-138.3 3049.73,-141.8 3059.73,-145.3 3059.73,-138.3"/>
</g>
<!-- DisableInMatchButtonPipe -->
<g id="node4" class="node">
<title>DisableInMatchButtonPipe</title>
<polygon fill="#ffffb3" stroke="black" points="5621.7,-84.8 5452.3,-84.8 5452.3,-48.8 5621.7,-48.8 5621.7,-84.8"/>
<text text-anchor="middle" x="5537" y="-62.6" font-family="Times,serif" font-size="14.00">DisableInMatchButtonPipe</text>
</g>
<!-- DisableInMatchButtonPipe&#45;&gt;AppModule -->
<g id="edge4" class="edge">
<title>DisableInMatchButtonPipe&#45;&gt;AppModule</title>
<path fill="none" stroke="black" d="M5537,-84.84C5537,-106.46 5537,-139.8 5537,-139.8 5537,-139.8 3059.79,-139.8 3059.79,-139.8"/>
<polygon fill="black" stroke="black" points="3059.79,-136.3 3049.79,-139.8 3059.79,-143.3 3059.79,-136.3"/>
</g>
<!-- DisplayMessagesOnlyFromCurrentMatchPipe -->
<g id="node5" class="node">
<title>DisplayMessagesOnlyFromCurrentMatchPipe</title>
<polygon fill="#ffffb3" stroke="black" points="5434.75,-84.8 5159.25,-84.8 5159.25,-48.8 5434.75,-48.8 5434.75,-84.8"/>
<text text-anchor="middle" x="5297" y="-62.6" font-family="Times,serif" font-size="14.00">DisplayMessagesOnlyFromCurrentMatchPipe</text>
</g>
<!-- DisplayMessagesOnlyFromCurrentMatchPipe&#45;&gt;AppModule -->
<g id="edge5" class="edge">
<title>DisplayMessagesOnlyFromCurrentMatchPipe&#45;&gt;AppModule</title>
<path fill="none" stroke="black" d="M5297,-85.08C5297,-106.12 5297,-137.8 5297,-137.8 5297,-137.8 3059.68,-137.8 3059.68,-137.8"/>
<polygon fill="black" stroke="black" points="3059.68,-134.3 3049.68,-137.8 3059.68,-141.3 3059.68,-134.3"/>
</g>
<!-- EditProfileComponent -->
<g id="node6" class="node">
<title>EditProfileComponent</title>
<polygon fill="#ffffb3" stroke="black" points="5141.27,-84.8 4998.73,-84.8 4998.73,-48.8 5141.27,-48.8 5141.27,-84.8"/>
<text text-anchor="middle" x="5070" y="-62.6" font-family="Times,serif" font-size="14.00">EditProfileComponent</text>
</g>
<!-- EditProfileComponent&#45;&gt;AppModule -->
<g id="edge6" class="edge">
<title>EditProfileComponent&#45;&gt;AppModule</title>
<path fill="none" stroke="black" d="M5070,-84.83C5070,-105.57 5070,-136.8 5070,-136.8 5070,-136.8 3060.12,-136.8 3060.12,-136.8"/>
<polygon fill="black" stroke="black" points="3060.12,-133.3 3050.12,-136.8 3060.12,-140.3 3060.12,-133.3"/>
</g>
<!-- FeedMainComponent -->
<g id="node7" class="node">
<title>FeedMainComponent</title>
<polygon fill="#ffffb3" stroke="black" points="4981.1,-84.8 4842.9,-84.8 4842.9,-48.8 4981.1,-48.8 4981.1,-84.8"/>
<text text-anchor="middle" x="4912" y="-62.6" font-family="Times,serif" font-size="14.00">FeedMainComponent</text>
</g>
<!-- FeedMainComponent&#45;&gt;AppModule -->
<g id="edge7" class="edge">
<title>FeedMainComponent&#45;&gt;AppModule</title>
<path fill="none" stroke="black" d="M4912,-85.02C4912,-105.17 4912,-134.8 4912,-134.8 4912,-134.8 3059.99,-134.8 3059.99,-134.8"/>
<polygon fill="black" stroke="black" points="3059.99,-131.3 3049.99,-134.8 3059.99,-138.3 3059.99,-131.3"/>
</g>
<!-- FilterTeamOnlyPipe -->
<g id="node8" class="node">
<title>FilterTeamOnlyPipe</title>
<polygon fill="#ffffb3" stroke="black" points="4824.59,-84.8 4693.41,-84.8 4693.41,-48.8 4824.59,-48.8 4824.59,-84.8"/>
<text text-anchor="middle" x="4759" y="-62.6" font-family="Times,serif" font-size="14.00">FilterTeamOnlyPipe</text>
</g>
<!-- FilterTeamOnlyPipe&#45;&gt;AppModule -->
<g id="edge8" class="edge">
<title>FilterTeamOnlyPipe&#45;&gt;AppModule</title>
<path fill="none" stroke="black" d="M4759,-84.83C4759,-104.38 4759,-132.8 4759,-132.8 4759,-132.8 3059.99,-132.8 3059.99,-132.8"/>
<polygon fill="black" stroke="black" points="3059.99,-129.3 3049.99,-132.8 3059.99,-136.3 3059.99,-129.3"/>
</g>
<!-- HeaderComponent -->
<g id="node9" class="node">
<title>HeaderComponent</title>
<polygon fill="#ffffb3" stroke="black" points="4675.75,-84.8 4554.25,-84.8 4554.25,-48.8 4675.75,-48.8 4675.75,-84.8"/>
<text text-anchor="middle" x="4615" y="-62.6" font-family="Times,serif" font-size="14.00">HeaderComponent</text>
</g>
<!-- HeaderComponent&#45;&gt;AppModule -->
<g id="edge9" class="edge">
<title>HeaderComponent&#45;&gt;AppModule</title>
<path fill="none" stroke="black" d="M4615,-84.91C4615,-104.14 4615,-131.8 4615,-131.8 4615,-131.8 3059.75,-131.8 3059.75,-131.8"/>
<polygon fill="black" stroke="black" points="3059.75,-128.3 3049.75,-131.8 3059.75,-135.3 3059.75,-128.3"/>
</g>
<!-- HoursMinutesPipe -->
<g id="node10" class="node">
<title>HoursMinutesPipe</title>
<polygon fill="#ffffb3" stroke="black" points="4536.5,-84.8 4415.5,-84.8 4415.5,-48.8 4536.5,-48.8 4536.5,-84.8"/>
<text text-anchor="middle" x="4476" y="-62.6" font-family="Times,serif" font-size="14.00">HoursMinutesPipe</text>
</g>
<!-- HoursMinutesPipe&#45;&gt;AppModule -->
<g id="edge10" class="edge">
<title>HoursMinutesPipe&#45;&gt;AppModule</title>
<path fill="none" stroke="black" d="M4476,-85.02C4476,-103.63 4476,-129.8 4476,-129.8 4476,-129.8 3059.96,-129.8 3059.96,-129.8"/>
<polygon fill="black" stroke="black" points="3059.96,-126.3 3049.96,-129.8 3059.96,-133.3 3059.96,-126.3"/>
</g>
<!-- InMatchComponent -->
<g id="node11" class="node">
<title>InMatchComponent</title>
<polygon fill="#ffffb3" stroke="black" points="4397.26,-84.8 4268.74,-84.8 4268.74,-48.8 4397.26,-48.8 4397.26,-84.8"/>
<text text-anchor="middle" x="4333" y="-62.6" font-family="Times,serif" font-size="14.00">InMatchComponent</text>
</g>
<!-- InMatchComponent&#45;&gt;AppModule -->
<g id="edge11" class="edge">
<title>InMatchComponent&#45;&gt;AppModule</title>
<path fill="none" stroke="black" d="M4333,-85.1C4333,-103.07 4333,-127.8 4333,-127.8 4333,-127.8 3059.84,-127.8 3059.84,-127.8"/>
<polygon fill="black" stroke="black" points="3059.84,-124.3 3049.84,-127.8 3059.84,-131.3 3059.84,-124.3"/>
</g>
<!-- IsUserInDisikedListPipe -->
<g id="node12" class="node">
<title>IsUserInDisikedListPipe</title>
<polygon fill="#ffffb3" stroke="black" points="4250.43,-84.8 4095.57,-84.8 4095.57,-48.8 4250.43,-48.8 4250.43,-84.8"/>
<text text-anchor="middle" x="4173" y="-62.6" font-family="Times,serif" font-size="14.00">IsUserInDisikedListPipe</text>
</g>
<!-- IsUserInDisikedListPipe&#45;&gt;AppModule -->
<g id="edge12" class="edge">
<title>IsUserInDisikedListPipe&#45;&gt;AppModule</title>
<path fill="none" stroke="black" d="M4173,-84.82C4173,-102.17 4173,-125.8 4173,-125.8 4173,-125.8 3059.81,-125.8 3059.81,-125.8"/>
<polygon fill="black" stroke="black" points="3059.81,-122.3 3049.81,-125.8 3059.81,-129.3 3059.81,-122.3"/>
</g>
<!-- IsUserInLikedListOfMessagePipe -->
<g id="node13" class="node">
<title>IsUserInLikedListOfMessagePipe</title>
<polygon fill="#ffffb3" stroke="black" points="4077.79,-84.8 3870.21,-84.8 3870.21,-48.8 4077.79,-48.8 4077.79,-84.8"/>
<text text-anchor="middle" x="3974" y="-62.6" font-family="Times,serif" font-size="14.00">IsUserInLikedListOfMessagePipe</text>
</g>
<!-- IsUserInLikedListOfMessagePipe&#45;&gt;AppModule -->
<g id="edge13" class="edge">
<title>IsUserInLikedListOfMessagePipe&#45;&gt;AppModule</title>
<path fill="none" stroke="black" d="M3974,-84.83C3974,-101.86 3974,-124.8 3974,-124.8 3974,-124.8 3059.82,-124.8 3059.82,-124.8"/>
<polygon fill="black" stroke="black" points="3059.82,-121.3 3049.82,-124.8 3059.82,-128.3 3059.82,-121.3"/>
</g>
<!-- IsUserInLikedListPipe -->
<g id="node14" class="node">
<title>IsUserInLikedListPipe</title>
<polygon fill="#ffffb3" stroke="black" points="3852.53,-84.8 3709.47,-84.8 3709.47,-48.8 3852.53,-48.8 3852.53,-84.8"/>
<text text-anchor="middle" x="3781" y="-62.6" font-family="Times,serif" font-size="14.00">IsUserInLikedListPipe</text>
</g>
<!-- IsUserInLikedListPipe&#45;&gt;AppModule -->
<g id="edge14" class="edge">
<title>IsUserInLikedListPipe&#45;&gt;AppModule</title>
<path fill="none" stroke="black" d="M3781,-84.83C3781,-101.2 3781,-122.8 3781,-122.8 3781,-122.8 3059.83,-122.8 3059.83,-122.8"/>
<polygon fill="black" stroke="black" points="3059.83,-119.3 3049.83,-122.8 3059.83,-126.3 3059.83,-119.3"/>
</g>
<!-- LeaderboardComponent -->
<g id="node15" class="node">
<title>LeaderboardComponent</title>
<polygon fill="#ffffb3" stroke="black" points="3691.06,-84.8 3538.94,-84.8 3538.94,-48.8 3691.06,-48.8 3691.06,-84.8"/>
<text text-anchor="middle" x="3615" y="-62.6" font-family="Times,serif" font-size="14.00">LeaderboardComponent</text>
</g>
<!-- LeaderboardComponent&#45;&gt;AppModule -->
<g id="edge15" class="edge">
<title>LeaderboardComponent&#45;&gt;AppModule</title>
<path fill="none" stroke="black" d="M3615,-85.08C3615,-100.75 3615,-120.8 3615,-120.8 3615,-120.8 3059.72,-120.8 3059.72,-120.8"/>
<polygon fill="black" stroke="black" points="3059.72,-117.3 3049.72,-120.8 3059.72,-124.3 3059.72,-117.3"/>
</g>
<!-- LoginComponent -->
<g id="node16" class="node">
<title>LoginComponent</title>
<polygon fill="#ffffb3" stroke="black" points="3521.27,-84.8 3406.73,-84.8 3406.73,-48.8 3521.27,-48.8 3521.27,-84.8"/>
<text text-anchor="middle" x="3464" y="-62.6" font-family="Times,serif" font-size="14.00">LoginComponent</text>
</g>
<!-- LoginComponent&#45;&gt;AppModule -->
<g id="edge16" class="edge">
<title>LoginComponent&#45;&gt;AppModule</title>
<path fill="none" stroke="black" d="M3464,-85.04C3464,-100.37 3464,-119.8 3464,-119.8 3464,-119.8 3059.68,-119.8 3059.68,-119.8"/>
<polygon fill="black" stroke="black" points="3059.68,-116.3 3049.68,-119.8 3059.68,-123.3 3059.68,-116.3"/>
</g>
<!-- MatchesAdminComponent -->
<g id="node17" class="node">
<title>MatchesAdminComponent</title>
<polygon fill="#ffffb3" stroke="black" points="3388.65,-84.8 3221.35,-84.8 3221.35,-48.8 3388.65,-48.8 3388.65,-84.8"/>
<text text-anchor="middle" x="3305" y="-62.6" font-family="Times,serif" font-size="14.00">MatchesAdminComponent</text>
</g>
<!-- MatchesAdminComponent&#45;&gt;AppModule -->
<g id="edge17" class="edge">
<title>MatchesAdminComponent&#45;&gt;AppModule</title>
<path fill="none" stroke="black" d="M3305,-84.92C3305,-99.58 3305,-117.8 3305,-117.8 3305,-117.8 3059.92,-117.8 3059.92,-117.8"/>
<polygon fill="black" stroke="black" points="3059.92,-114.3 3049.92,-117.8 3059.92,-121.3 3059.92,-114.3"/>
</g>
<!-- NewsPageComponent -->
<g id="node18" class="node">
<title>NewsPageComponent</title>
<polygon fill="#ffffb3" stroke="black" points="3203.43,-84.8 3062.57,-84.8 3062.57,-48.8 3203.43,-48.8 3203.43,-84.8"/>
<text text-anchor="middle" x="3133" y="-62.6" font-family="Times,serif" font-size="14.00">NewsPageComponent</text>
</g>
<!-- NewsPageComponent&#45;&gt;AppModule -->
<g id="edge18" class="edge">
<title>NewsPageComponent&#45;&gt;AppModule</title>
<path fill="none" stroke="black" d="M3133,-85.05C3133,-98.98 3133,-115.8 3133,-115.8 3133,-115.8 3059.97,-115.8 3059.97,-115.8"/>
<polygon fill="black" stroke="black" points="3059.97,-112.3 3049.97,-115.8 3059.97,-119.3 3059.97,-112.3"/>
</g>
<!-- PluralPipe -->
<g id="node19" class="node">
<title>PluralPipe</title>
<polygon fill="#ffffb3" stroke="black" points="3045.33,-84.8 2970.67,-84.8 2970.67,-48.8 3045.33,-48.8 3045.33,-84.8"/>
<text text-anchor="middle" x="3008" y="-62.6" font-family="Times,serif" font-size="14.00">PluralPipe</text>
</g>
<!-- PluralPipe&#45;&gt;AppModule -->
<g id="edge19" class="edge">
<title>PluralPipe&#45;&gt;AppModule</title>
<path fill="none" stroke="black" d="M3008,-84.91C3008,-84.91 3008,-103.79 3008,-103.79"/>
<polygon fill="black" stroke="black" points="3004.5,-103.79 3008,-113.79 3011.5,-103.79 3004.5,-103.79"/>
</g>
<!-- PollsPageComponent -->
<g id="node20" class="node">
<title>PollsPageComponent</title>
<polygon fill="#ffffb3" stroke="black" points="2953.06,-84.8 2816.94,-84.8 2816.94,-48.8 2953.06,-48.8 2953.06,-84.8"/>
<text text-anchor="middle" x="2885" y="-62.6" font-family="Times,serif" font-size="14.00">PollsPageComponent</text>
</g>
<!-- PollsPageComponent&#45;&gt;AppModule -->
<g id="edge20" class="edge">
<title>PollsPageComponent&#45;&gt;AppModule</title>
<path fill="none" stroke="black" d="M2885,-85.05C2885,-98.98 2885,-115.8 2885,-115.8 2885,-115.8 2956.01,-115.8 2956.01,-115.8"/>
<polygon fill="black" stroke="black" points="2956.01,-119.3 2966.01,-115.8 2956.01,-112.3 2956.01,-119.3"/>
</g>
<!-- ReturnAllMatchPipe -->
<g id="node21" class="node">
<title>ReturnAllMatchPipe</title>
<polygon fill="#ffffb3" stroke="black" points="2798.15,-84.8 2665.85,-84.8 2665.85,-48.8 2798.15,-48.8 2798.15,-84.8"/>
<text text-anchor="middle" x="2732" y="-62.6" font-family="Times,serif" font-size="14.00">ReturnAllMatchPipe</text>
</g>
<!-- ReturnAllMatchPipe&#45;&gt;AppModule -->
<g id="edge21" class="edge">
<title>ReturnAllMatchPipe&#45;&gt;AppModule</title>
<path fill="none" stroke="black" d="M2732,-84.92C2732,-99.58 2732,-117.8 2732,-117.8 2732,-117.8 2956.08,-117.8 2956.08,-117.8"/>
<polygon fill="black" stroke="black" points="2956.08,-121.3 2966.08,-117.8 2956.08,-114.3 2956.08,-121.3"/>
</g>
<!-- ReturnCurrentMatchIdPipe -->
<g id="node22" class="node">
<title>ReturnCurrentMatchIdPipe</title>
<polygon fill="#ffffb3" stroke="black" points="2647.69,-84.8 2478.31,-84.8 2478.31,-48.8 2647.69,-48.8 2647.69,-84.8"/>
<text text-anchor="middle" x="2563" y="-62.6" font-family="Times,serif" font-size="14.00">ReturnCurrentMatchIdPipe</text>
</g>
<!-- ReturnCurrentMatchIdPipe&#45;&gt;AppModule -->
<g id="edge22" class="edge">
<title>ReturnCurrentMatchIdPipe&#45;&gt;AppModule</title>
<path fill="none" stroke="black" d="M2563,-85.04C2563,-100.37 2563,-119.8 2563,-119.8 2563,-119.8 2956.14,-119.8 2956.14,-119.8"/>
<polygon fill="black" stroke="black" points="2956.14,-123.3 2966.14,-119.8 2956.14,-116.3 2956.14,-123.3"/>
</g>
<!-- ReturnCurrentMatchPipe -->
<g id="node23" class="node">
<title>ReturnCurrentMatchPipe</title>
<polygon fill="#ffffb3" stroke="black" points="2460.53,-84.8 2303.47,-84.8 2303.47,-48.8 2460.53,-48.8 2460.53,-84.8"/>
<text text-anchor="middle" x="2382" y="-62.6" font-family="Times,serif" font-size="14.00">ReturnCurrentMatchPipe</text>
</g>
<!-- ReturnCurrentMatchPipe&#45;&gt;AppModule -->
<g id="edge23" class="edge">
<title>ReturnCurrentMatchPipe&#45;&gt;AppModule</title>
<path fill="none" stroke="black" d="M2382,-85.08C2382,-100.75 2382,-120.8 2382,-120.8 2382,-120.8 2955.95,-120.8 2955.95,-120.8"/>
<polygon fill="black" stroke="black" points="2955.95,-124.3 2965.95,-120.8 2955.95,-117.3 2955.95,-124.3"/>
</g>
<!-- ReturnFinishedMatchPipe -->
<g id="node24" class="node">
<title>ReturnFinishedMatchPipe</title>
<polygon fill="#ffffb3" stroke="black" points="2285.49,-84.8 2122.51,-84.8 2122.51,-48.8 2285.49,-48.8 2285.49,-84.8"/>
<text text-anchor="middle" x="2204" y="-62.6" font-family="Times,serif" font-size="14.00">ReturnFinishedMatchPipe</text>
</g>
<!-- ReturnFinishedMatchPipe&#45;&gt;AppModule -->
<g id="edge24" class="edge">
<title>ReturnFinishedMatchPipe&#45;&gt;AppModule</title>
<path fill="none" stroke="black" d="M2204,-84.83C2204,-101.2 2204,-122.8 2204,-122.8 2204,-122.8 2956.19,-122.8 2956.19,-122.8"/>
<polygon fill="black" stroke="black" points="2956.19,-126.3 2966.19,-122.8 2956.19,-119.3 2956.19,-126.3"/>
</g>
<!-- ReturnIfXthPipe -->
<g id="node25" class="node">
<title>ReturnIfXthPipe</title>
<polygon fill="#ffffb3" stroke="black" points="2104.82,-84.8 1995.18,-84.8 1995.18,-48.8 2104.82,-48.8 2104.82,-84.8"/>
<text text-anchor="middle" x="2050" y="-62.6" font-family="Times,serif" font-size="14.00">ReturnIfXthPipe</text>
</g>
<!-- ReturnIfXthPipe&#45;&gt;AppModule -->
<g id="edge25" class="edge">
<title>ReturnIfXthPipe&#45;&gt;AppModule</title>
<path fill="none" stroke="black" d="M2050,-84.83C2050,-101.86 2050,-124.8 2050,-124.8 2050,-124.8 2956.22,-124.8 2956.22,-124.8"/>
<polygon fill="black" stroke="black" points="2956.22,-128.3 2966.22,-124.8 2956.22,-121.3 2956.22,-128.3"/>
</g>
<!-- ReturnRankUserPipe -->
<g id="node26" class="node">
<title>ReturnRankUserPipe</title>
<polygon fill="#ffffb3" stroke="black" points="1977.48,-84.8 1842.52,-84.8 1842.52,-48.8 1977.48,-48.8 1977.48,-84.8"/>
<text text-anchor="middle" x="1910" y="-62.6" font-family="Times,serif" font-size="14.00">ReturnRankUserPipe</text>
</g>
<!-- ReturnRankUserPipe&#45;&gt;AppModule -->
<g id="edge26" class="edge">
<title>ReturnRankUserPipe&#45;&gt;AppModule</title>
<path fill="none" stroke="black" d="M1910,-84.82C1910,-102.17 1910,-125.8 1910,-125.8 1910,-125.8 2956.3,-125.8 2956.3,-125.8"/>
<polygon fill="black" stroke="black" points="2956.3,-129.3 2966.3,-125.8 2956.3,-122.3 2956.3,-129.3"/>
</g>
<!-- ReturnSizePipe -->
<g id="node27" class="node">
<title>ReturnSizePipe</title>
<polygon fill="#ffffb3" stroke="black" points="1824.6,-84.8 1721.4,-84.8 1721.4,-48.8 1824.6,-48.8 1824.6,-84.8"/>
<text text-anchor="middle" x="1773" y="-62.6" font-family="Times,serif" font-size="14.00">ReturnSizePipe</text>
</g>
<!-- ReturnSizePipe&#45;&gt;AppModule -->
<g id="edge27" class="edge">
<title>ReturnSizePipe&#45;&gt;AppModule</title>
<path fill="none" stroke="black" d="M1773,-85.1C1773,-103.07 1773,-127.8 1773,-127.8 1773,-127.8 2956.2,-127.8 2956.2,-127.8"/>
<polygon fill="black" stroke="black" points="2956.2,-131.3 2966.2,-127.8 2956.2,-124.3 2956.2,-131.3"/>
</g>
<!-- ReturnUserPipe -->
<g id="node28" class="node">
<title>ReturnUserPipe</title>
<polygon fill="#ffffb3" stroke="black" points="1703.93,-84.8 1598.07,-84.8 1598.07,-48.8 1703.93,-48.8 1703.93,-84.8"/>
<text text-anchor="middle" x="1651" y="-62.6" font-family="Times,serif" font-size="14.00">ReturnUserPipe</text>
</g>
<!-- ReturnUserPipe&#45;&gt;AppModule -->
<g id="edge28" class="edge">
<title>ReturnUserPipe&#45;&gt;AppModule</title>
<path fill="none" stroke="black" d="M1651,-85.02C1651,-103.63 1651,-129.8 1651,-129.8 1651,-129.8 2956.27,-129.8 2956.27,-129.8"/>
<polygon fill="black" stroke="black" points="2956.27,-133.3 2966.27,-129.8 2956.27,-126.3 2956.27,-133.3"/>
</g>
<!-- ReturnXthPipe -->
<g id="node29" class="node">
<title>ReturnXthPipe</title>
<polygon fill="#ffffb3" stroke="black" points="1579.99,-84.8 1480.01,-84.8 1480.01,-48.8 1579.99,-48.8 1579.99,-84.8"/>
<text text-anchor="middle" x="1530" y="-62.6" font-family="Times,serif" font-size="14.00">ReturnXthPipe</text>
</g>
<!-- ReturnXthPipe&#45;&gt;AppModule -->
<g id="edge29" class="edge">
<title>ReturnXthPipe&#45;&gt;AppModule</title>
<path fill="none" stroke="black" d="M1530,-84.91C1530,-104.14 1530,-131.8 1530,-131.8 1530,-131.8 2956.15,-131.8 2956.15,-131.8"/>
<polygon fill="black" stroke="black" points="2956.15,-135.3 2966.15,-131.8 2956.15,-128.3 2956.15,-135.3"/>
</g>
<!-- SignupComponent -->
<g id="node30" class="node">
<title>SignupComponent</title>
<polygon fill="#ffffb3" stroke="black" points="1461.51,-84.8 1340.49,-84.8 1340.49,-48.8 1461.51,-48.8 1461.51,-84.8"/>
<text text-anchor="middle" x="1401" y="-62.6" font-family="Times,serif" font-size="14.00">SignupComponent</text>
</g>
<!-- SignupComponent&#45;&gt;AppModule -->
<g id="edge30" class="edge">
<title>SignupComponent&#45;&gt;AppModule</title>
<path fill="none" stroke="black" d="M1401,-84.83C1401,-104.38 1401,-132.8 1401,-132.8 1401,-132.8 2956.25,-132.8 2956.25,-132.8"/>
<polygon fill="black" stroke="black" points="2956.25,-136.3 2966.25,-132.8 2956.25,-129.3 2956.25,-136.3"/>
</g>
<!-- SortByDatePipe -->
<g id="node31" class="node">
<title>SortByDatePipe</title>
<polygon fill="#ffffb3" stroke="black" points="1322.49,-84.8 1215.51,-84.8 1215.51,-48.8 1322.49,-48.8 1322.49,-84.8"/>
<text text-anchor="middle" x="1269" y="-62.6" font-family="Times,serif" font-size="14.00">SortByDatePipe</text>
</g>
<!-- SortByDatePipe&#45;&gt;AppModule -->
<g id="edge31" class="edge">
<title>SortByDatePipe&#45;&gt;AppModule</title>
<path fill="none" stroke="black" d="M1269,-85.02C1269,-105.17 1269,-134.8 1269,-134.8 1269,-134.8 2956.3,-134.8 2956.3,-134.8"/>
<polygon fill="black" stroke="black" points="2956.3,-138.3 2966.3,-134.8 2956.3,-131.3 2956.3,-138.3"/>
</g>
<!-- SortDateDescendingPipe -->
<g id="node32" class="node">
<title>SortDateDescendingPipe</title>
<polygon fill="#ffffb3" stroke="black" points="1197.25,-84.8 1040.75,-84.8 1040.75,-48.8 1197.25,-48.8 1197.25,-84.8"/>
<text text-anchor="middle" x="1119" y="-62.6" font-family="Times,serif" font-size="14.00">SortDateDescendingPipe</text>
</g>
<!-- SortDateDescendingPipe&#45;&gt;AppModule -->
<g id="edge32" class="edge">
<title>SortDateDescendingPipe&#45;&gt;AppModule</title>
<path fill="none" stroke="black" d="M1119,-84.83C1119,-105.57 1119,-136.8 1119,-136.8 1119,-136.8 2955.9,-136.8 2955.9,-136.8"/>
<polygon fill="black" stroke="black" points="2955.9,-140.3 2965.9,-136.8 2955.9,-133.3 2955.9,-140.3"/>
</g>
<!-- SortDateDescendingPipeP -->
<g id="node33" class="node">
<title>SortDateDescendingPipeP</title>
<polygon fill="#ffffb3" stroke="black" points="1022.03,-84.8 857.97,-84.8 857.97,-48.8 1022.03,-48.8 1022.03,-84.8"/>
<text text-anchor="middle" x="940" y="-62.6" font-family="Times,serif" font-size="14.00">SortDateDescendingPipeP</text>
</g>
<!-- SortDateDescendingPipeP&#45;&gt;AppModule -->
<g id="edge33" class="edge">
<title>SortDateDescendingPipeP&#45;&gt;AppModule</title>
<path fill="none" stroke="black" d="M940,-85.08C940,-106.12 940,-137.8 940,-137.8 940,-137.8 2956.22,-137.8 2956.22,-137.8"/>
<polygon fill="black" stroke="black" points="2956.22,-141.3 2966.22,-137.8 2956.22,-134.3 2956.22,-141.3"/>
</g>
<!-- SortTeamFirstPipe -->
<g id="node34" class="node">
<title>SortTeamFirstPipe</title>
<polygon fill="#ffffb3" stroke="black" points="839.77,-84.8 718.23,-84.8 718.23,-48.8 839.77,-48.8 839.77,-84.8"/>
<text text-anchor="middle" x="779" y="-62.6" font-family="Times,serif" font-size="14.00">SortTeamFirstPipe</text>
</g>
<!-- SortTeamFirstPipe&#45;&gt;AppModule -->
<g id="edge34" class="edge">
<title>SortTeamFirstPipe&#45;&gt;AppModule</title>
<path fill="none" stroke="black" d="M779,-84.84C779,-106.46 779,-139.8 779,-139.8 779,-139.8 2955.95,-139.8 2955.95,-139.8"/>
<polygon fill="black" stroke="black" points="2955.95,-143.3 2965.95,-139.8 2955.95,-136.3 2955.95,-143.3"/>
</g>
<!-- ToDatePipe -->
<g id="node35" class="node">
<title>ToDatePipe</title>
<polygon fill="#ffffb3" stroke="black" points="700.37,-84.8 617.63,-84.8 617.63,-48.8 700.37,-48.8 700.37,-84.8"/>
<text text-anchor="middle" x="659" y="-62.6" font-family="Times,serif" font-size="14.00">ToDatePipe</text>
</g>
<!-- ToDatePipe&#45;&gt;AppModule -->
<g id="edge35" class="edge">
<title>ToDatePipe&#45;&gt;AppModule</title>
<path fill="none" stroke="black" d="M659,-84.96C659,-107.15 659,-141.8 659,-141.8 659,-141.8 2956.23,-141.8 2956.23,-141.8"/>
<polygon fill="black" stroke="black" points="2956.23,-145.3 2966.23,-141.8 2956.23,-138.3 2956.23,-145.3"/>
</g>
<!-- TransformPipe -->
<g id="node36" class="node">
<title>TransformPipe</title>
<polygon fill="#ffffb3" stroke="black" points="599.98,-84.8 500.02,-84.8 500.02,-48.8 599.98,-48.8 599.98,-84.8"/>
<text text-anchor="middle" x="550" y="-62.6" font-family="Times,serif" font-size="14.00">TransformPipe</text>
</g>
<!-- TransformPipe&#45;&gt;AppModule -->
<g id="edge36" class="edge">
<title>TransformPipe&#45;&gt;AppModule</title>
<path fill="none" stroke="black" d="M550,-85.05C550,-107.82 550,-143.8 550,-143.8 550,-143.8 2956.11,-143.8 2956.11,-143.8"/>
<polygon fill="black" stroke="black" points="2956.11,-147.3 2966.11,-143.8 2956.11,-140.3 2956.11,-147.3"/>
</g>
<!-- UidContainsListPipe -->
<g id="node37" class="node">
<title>UidContainsListPipe</title>
<polygon fill="#ffffb3" stroke="black" points="481.95,-84.8 348.05,-84.8 348.05,-48.8 481.95,-48.8 481.95,-84.8"/>
<text text-anchor="middle" x="415" y="-62.6" font-family="Times,serif" font-size="14.00">UidContainsListPipe</text>
</g>
<!-- UidContainsListPipe&#45;&gt;AppModule -->
<g id="edge37" class="edge">
<title>UidContainsListPipe&#45;&gt;AppModule</title>
<path fill="none" stroke="black" d="M415,-84.89C415,-107.93 415,-144.8 415,-144.8 415,-144.8 2956.22,-144.8 2956.22,-144.8"/>
<polygon fill="black" stroke="black" points="2956.22,-148.3 2966.22,-144.8 2956.22,-141.3 2956.22,-148.3"/>
</g>
<!-- UserDetailComponent -->
<g id="node38" class="node">
<title>UserDetailComponent</title>
<polygon fill="#ffffb3" stroke="black" points="329.97,-84.8 188.03,-84.8 188.03,-48.8 329.97,-48.8 329.97,-84.8"/>
<text text-anchor="middle" x="259" y="-62.6" font-family="Times,serif" font-size="14.00">UserDetailComponent</text>
</g>
<!-- UserDetailComponent&#45;&gt;AppModule -->
<g id="edge38" class="edge">
<title>UserDetailComponent&#45;&gt;AppModule</title>
<path fill="none" stroke="black" d="M259,-84.95C259,-108.56 259,-146.8 259,-146.8 259,-146.8 2956.19,-146.8 2956.19,-146.8"/>
<polygon fill="black" stroke="black" points="2956.19,-150.3 2966.19,-146.8 2956.19,-143.3 2956.19,-150.3"/>
</g>
<!-- UserProfileComponent -->
<g id="node39" class="node">
<title>UserProfileComponent</title>
<polygon fill="#ffffb3" stroke="black" points="169.87,-84.8 24.13,-84.8 24.13,-48.8 169.87,-48.8 169.87,-84.8"/>
<text text-anchor="middle" x="97" y="-62.6" font-family="Times,serif" font-size="14.00">UserProfileComponent</text>
</g>
<!-- UserProfileComponent&#45;&gt;AppModule -->
<g id="edge39" class="edge">
<title>UserProfileComponent&#45;&gt;AppModule</title>
<path fill="none" stroke="black" d="M97,-85C97,-109.16 97,-148.8 97,-148.8 97,-148.8 2956.29,-148.8 2956.29,-148.8"/>
<polygon fill="black" stroke="black" points="2956.29,-152.3 2966.29,-148.8 2956.29,-145.3 2956.29,-152.3"/>
</g>
<!-- AppComponent  -->
<g id="node42" class="node">
<title>AppComponent </title>
<polygon fill="#80b1d3" stroke="black" points="3062.44,-214.8 2953.56,-214.8 2953.56,-178.8 3062.44,-178.8 3062.44,-214.8"/>
<text text-anchor="middle" x="3008" y="-192.6" font-family="Times,serif" font-size="14.00">AppComponent </text>
</g>
<!-- AppModule&#45;&gt;AppComponent  -->
<g id="edge41" class="edge">
<title>AppModule&#45;&gt;AppComponent </title>
<path fill="none" stroke="black" stroke-dasharray="1,5" d="M3008,-149.91C3008,-149.91 3008,-168.79 3008,-168.79"/>
<polygon fill="black" stroke="black" points="3004.5,-168.79 3008,-178.79 3011.5,-168.79 3004.5,-168.79"/>
</g>
<!-- AppRoutingModule -->
<g id="node41" class="node">
<title>AppRoutingModule</title>
<polygon fill="#8dd3c7" stroke="black" points="6203.28,-84.8 6200.28,-88.8 6179.28,-88.8 6176.28,-84.8 6074.72,-84.8 6074.72,-48.8 6203.28,-48.8 6203.28,-84.8"/>
<text text-anchor="middle" x="6139" y="-62.6" font-family="Times,serif" font-size="14.00">AppRoutingModule</text>
</g>
<!-- AppRoutingModule&#45;&gt;AppModule -->
<g id="edge40" class="edge">
<title>AppRoutingModule&#45;&gt;AppModule</title>
<path fill="none" stroke="black" d="M6139,-84.95C6139,-108.56 6139,-146.8 6139,-146.8 6139,-146.8 3059.89,-146.8 3059.89,-146.8"/>
<polygon fill="black" stroke="black" points="3059.89,-143.3 3049.89,-146.8 3059.89,-150.3 3059.89,-143.3"/>
</g>
<!-- AuthService -->
<g id="node43" class="node">
<title>AuthService</title>
<ellipse fill="#fdb462" stroke="black" cx="6286" cy="-66.8" rx="59.11" ry="18"/>
<text text-anchor="middle" x="6286" y="-62.6" font-family="Times,serif" font-size="14.00">AuthService</text>
</g>
<!-- AuthService&#45;&gt;AppModule -->
<g id="edge42" class="edge">
<title>AuthService&#45;&gt;AppModule</title>
<path fill="none" stroke="black" d="M6286,-85C6286,-109.16 6286,-148.8 6286,-148.8 6286,-148.8 3059.74,-148.8 3059.74,-148.8"/>
<polygon fill="black" stroke="black" points="3059.74,-145.3 3049.74,-148.8 3059.74,-152.3 3059.74,-145.3"/>
</g>
</g>
</svg>
