<?xml version="1.0" encoding="UTF-8" standalone="no"?>
<!DOCTYPE svg PUBLIC "-//W3C//DTD SVG 1.1//EN"
 "http://www.w3.org/Graphics/SVG/1.1/DTD/svg11.dtd">
<!-- Generated by graphviz version 5.0.0 (20220707.1540)
 -->
<!-- Title: dependencies Pages: 1 -->
<svg width="5779pt" height="247pt"
 viewBox="0.00 0.00 5779.00 246.80" xmlns="http://www.w3.org/2000/svg" xmlns:xlink="http://www.w3.org/1999/xlink">
<g id="graph0" class="graph" transform="scale(1 1) rotate(0) translate(4 242.8)">
<title>dependencies</title>
<polygon fill="white" stroke="transparent" points="-4,4 -4,-242.8 5775,-242.8 5775,4 -4,4"/>
<text text-anchor="middle" x="2885.5" y="-8.2" font-family="sans-serif" font-size="14.00">dependencies</text>
<g id="clust1" class="cluster">
<title>cluster_AppModule</title>
<polygon fill="none" stroke="black" stroke-dasharray="1,5" points="8,-32.8 8,-230.8 5763,-230.8 5763,-32.8 8,-32.8"/>
</g>
<g id="clust2" class="cluster">
<title>cluster_AppModule_declarations</title>
<polygon fill="none" stroke="black" points="310,-40.8 310,-92.8 5755,-92.8 5755,-40.8 310,-40.8"/>
</g>
<g id="clust39" class="cluster">
<title>cluster_AppModule_imports</title>
<polygon fill="none" stroke="black" points="158,-40.8 158,-92.8 302,-92.8 302,-40.8 158,-40.8"/>
</g>
<g id="clust41" class="cluster">
<title>cluster_AppModule_bootstrap</title>
<polygon fill="none" stroke="black" points="2629,-170.8 2629,-222.8 2753,-222.8 2753,-170.8 2629,-170.8"/>
</g>
<g id="clust42" class="cluster">
<title>cluster_AppModule_providers</title>
<polygon fill="none" stroke="black" points="16,-40.8 16,-92.8 150,-92.8 150,-40.8 16,-40.8"/>
</g>
<!-- AdminPanelComponent -->
<g id="node1" class="node">
<title>AdminPanelComponent</title>
<polygon fill="#ffffb3" stroke="black" points="5746.82,-84.8 5595.18,-84.8 5595.18,-48.8 5746.82,-48.8 5746.82,-84.8"/>
<text text-anchor="middle" x="5671" y="-62.6" font-family="Times,serif" font-size="14.00">AdminPanelComponent</text>
</g>
<!-- AppModule -->
<g id="node37" class="node">
<title>AppModule</title>
<polygon fill="#8dd3c7" stroke="black" points="2732.66,-149.8 2729.66,-153.8 2708.66,-153.8 2705.66,-149.8 2649.34,-149.8 2649.34,-113.8 2732.66,-113.8 2732.66,-149.8"/>
<text text-anchor="middle" x="2691" y="-127.6" font-family="Times,serif" font-size="14.00">AppModule</text>
</g>
<!-- AdminPanelComponent&#45;&gt;AppModule -->
<g id="edge1" class="edge">
<title>AdminPanelComponent&#45;&gt;AppModule</title>
<path fill="none" stroke="black" d="M5671,-85C5671,-109.16 5671,-148.8 5671,-148.8 5671,-148.8 2742.84,-148.8 2742.84,-148.8"/>
<polygon fill="black" stroke="black" points="2742.84,-145.3 2732.84,-148.8 2742.84,-152.3 2742.84,-145.3"/>
</g>
<!-- AppComponent -->
<g id="node2" class="node">
<title>AppComponent</title>
<polygon fill="#ffffb3" stroke="black" points="5577.94,-84.8 5472.06,-84.8 5472.06,-48.8 5577.94,-48.8 5577.94,-84.8"/>
<text text-anchor="middle" x="5525" y="-62.6" font-family="Times,serif" font-size="14.00">AppComponent</text>
</g>
<!-- AppComponent&#45;&gt;AppModule -->
<g id="edge2" class="edge">
<title>AppComponent&#45;&gt;AppModule</title>
<path fill="none" stroke="black" d="M5525,-84.95C5525,-108.56 5525,-146.8 5525,-146.8 5525,-146.8 2742.71,-146.8 2742.71,-146.8"/>
<polygon fill="black" stroke="black" points="2742.71,-143.3 2732.71,-146.8 2742.71,-150.3 2742.71,-143.3"/>
</g>
<!-- ChartsComponent -->
<g id="node3" class="node">
<title>ChartsComponent</title>
<polygon fill="#ffffb3" stroke="black" points="5453.88,-84.8 5336.12,-84.8 5336.12,-48.8 5453.88,-48.8 5453.88,-84.8"/>
<text text-anchor="middle" x="5395" y="-62.6" font-family="Times,serif" font-size="14.00">ChartsComponent</text>
</g>
<!-- ChartsComponent&#45;&gt;AppModule -->
<g id="edge3" class="edge">
<title>ChartsComponent&#45;&gt;AppModule</title>
<path fill="none" stroke="black" d="M5395,-84.89C5395,-107.93 5395,-144.8 5395,-144.8 5395,-144.8 2742.93,-144.8 2742.93,-144.8"/>
<polygon fill="black" stroke="black" points="2742.93,-141.3 2732.93,-144.8 2742.93,-148.3 2742.93,-141.3"/>
</g>
<!-- DisplayMessagesOnlyFromCurrentMatchPipe -->
<g id="node4" class="node">
<title>DisplayMessagesOnlyFromCurrentMatchPipe</title>
<polygon fill="#ffffb3" stroke="black" points="5317.75,-84.8 5042.25,-84.8 5042.25,-48.8 5317.75,-48.8 5317.75,-84.8"/>
<text text-anchor="middle" x="5180" y="-62.6" font-family="Times,serif" font-size="14.00">DisplayMessagesOnlyFromCurrentMatchPipe</text>
</g>
<!-- DisplayMessagesOnlyFromCurrentMatchPipe&#45;&gt;AppModule -->
<g id="edge4" class="edge">
<title>DisplayMessagesOnlyFromCurrentMatchPipe&#45;&gt;AppModule</title>
<path fill="none" stroke="black" d="M5180,-84.81C5180,-107.29 5180,-142.8 5180,-142.8 5180,-142.8 2742.9,-142.8 2742.9,-142.8"/>
<polygon fill="black" stroke="black" points="2742.9,-139.3 2732.9,-142.8 2742.9,-146.3 2742.9,-139.3"/>
</g>
<!-- EditProfileComponent -->
<g id="node5" class="node">
<title>EditProfileComponent</title>
<polygon fill="#ffffb3" stroke="black" points="5024.27,-84.8 4881.73,-84.8 4881.73,-48.8 5024.27,-48.8 5024.27,-84.8"/>
<text text-anchor="middle" x="4953" y="-62.6" font-family="Times,serif" font-size="14.00">EditProfileComponent</text>
</g>
<!-- EditProfileComponent&#45;&gt;AppModule -->
<g id="edge5" class="edge">
<title>EditProfileComponent&#45;&gt;AppModule</title>
<path fill="none" stroke="black" d="M4953,-85.09C4953,-107.01 4953,-140.8 4953,-140.8 4953,-140.8 2742.68,-140.8 2742.68,-140.8"/>
<polygon fill="black" stroke="black" points="2742.68,-137.3 2732.68,-140.8 2742.68,-144.3 2742.68,-137.3"/>
</g>
<!-- FeedMainComponent -->
<g id="node6" class="node">
<title>FeedMainComponent</title>
<polygon fill="#ffffb3" stroke="black" points="4864.1,-84.8 4725.9,-84.8 4725.9,-48.8 4864.1,-48.8 4864.1,-84.8"/>
<text text-anchor="middle" x="4795" y="-62.6" font-family="Times,serif" font-size="14.00">FeedMainComponent</text>
</g>
<!-- FeedMainComponent&#45;&gt;AppModule -->
<g id="edge6" class="edge">
<title>FeedMainComponent&#45;&gt;AppModule</title>
<path fill="none" stroke="black" d="M4795,-84.97C4795,-106.3 4795,-138.8 4795,-138.8 4795,-138.8 2743.03,-138.8 2743.03,-138.8"/>
<polygon fill="black" stroke="black" points="2743.03,-135.3 2733.03,-138.8 2743.03,-142.3 2743.03,-135.3"/>
</g>
<!-- FilterTeamOnlyPipe -->
<g id="node7" class="node">
<title>FilterTeamOnlyPipe</title>
<polygon fill="#ffffb3" stroke="black" points="4707.59,-84.8 4576.41,-84.8 4576.41,-48.8 4707.59,-48.8 4707.59,-84.8"/>
<text text-anchor="middle" x="4642" y="-62.6" font-family="Times,serif" font-size="14.00">FilterTeamOnlyPipe</text>
</g>
<!-- FilterTeamOnlyPipe&#45;&gt;AppModule -->
<g id="edge7" class="edge">
<title>FilterTeamOnlyPipe&#45;&gt;AppModule</title>
<path fill="none" stroke="black" d="M4642,-84.83C4642,-105.57 4642,-136.8 4642,-136.8 4642,-136.8 2743.11,-136.8 2743.11,-136.8"/>
<polygon fill="black" stroke="black" points="2743.11,-133.3 2733.11,-136.8 2743.11,-140.3 2743.11,-133.3"/>
</g>
<!-- HeaderComponent -->
<g id="node8" class="node">
<title>HeaderComponent</title>
<polygon fill="#ffffb3" stroke="black" points="4558.75,-84.8 4437.25,-84.8 4437.25,-48.8 4558.75,-48.8 4558.75,-84.8"/>
<text text-anchor="middle" x="4498" y="-62.6" font-family="Times,serif" font-size="14.00">HeaderComponent</text>
</g>
<!-- HeaderComponent&#45;&gt;AppModule -->
<g id="edge8" class="edge">
<title>HeaderComponent&#45;&gt;AppModule</title>
<path fill="none" stroke="black" d="M4498,-85.02C4498,-105.17 4498,-134.8 4498,-134.8 4498,-134.8 2743.01,-134.8 2743.01,-134.8"/>
<polygon fill="black" stroke="black" points="2743.01,-131.3 2733.01,-134.8 2743.01,-138.3 2743.01,-131.3"/>
</g>
<!-- HoursMinutesPipe -->
<g id="node9" class="node">
<title>HoursMinutesPipe</title>
<polygon fill="#ffffb3" stroke="black" points="4419.5,-84.8 4298.5,-84.8 4298.5,-48.8 4419.5,-48.8 4419.5,-84.8"/>
<text text-anchor="middle" x="4359" y="-62.6" font-family="Times,serif" font-size="14.00">HoursMinutesPipe</text>
</g>
<!-- HoursMinutesPipe&#45;&gt;AppModule -->
<g id="edge9" class="edge">
<title>HoursMinutesPipe&#45;&gt;AppModule</title>
<path fill="none" stroke="black" d="M4359,-84.83C4359,-104.38 4359,-132.8 4359,-132.8 4359,-132.8 2743.07,-132.8 2743.07,-132.8"/>
<polygon fill="black" stroke="black" points="2743.07,-129.3 2733.07,-132.8 2743.07,-136.3 2743.07,-129.3"/>
</g>
<!-- InMatchComponent -->
<g id="node10" class="node">
<title>InMatchComponent</title>
<polygon fill="#ffffb3" stroke="black" points="4280.26,-84.8 4151.74,-84.8 4151.74,-48.8 4280.26,-48.8 4280.26,-84.8"/>
<text text-anchor="middle" x="4216" y="-62.6" font-family="Times,serif" font-size="14.00">InMatchComponent</text>
</g>
<!-- InMatchComponent&#45;&gt;AppModule -->
<g id="edge10" class="edge">
<title>InMatchComponent&#45;&gt;AppModule</title>
<path fill="none" stroke="black" d="M4216,-84.91C4216,-104.14 4216,-131.8 4216,-131.8 4216,-131.8 2742.98,-131.8 2742.98,-131.8"/>
<polygon fill="black" stroke="black" points="2742.98,-128.3 2732.98,-131.8 2742.98,-135.3 2742.98,-128.3"/>
</g>
<!-- IsUserInDisikedListPipe -->
<g id="node11" class="node">
<title>IsUserInDisikedListPipe</title>
<polygon fill="#ffffb3" stroke="black" points="4133.43,-84.8 3978.57,-84.8 3978.57,-48.8 4133.43,-48.8 4133.43,-84.8"/>
<text text-anchor="middle" x="4056" y="-62.6" font-family="Times,serif" font-size="14.00">IsUserInDisikedListPipe</text>
</g>
<!-- IsUserInDisikedListPipe&#45;&gt;AppModule -->
<g id="edge11" class="edge">
<title>IsUserInDisikedListPipe&#45;&gt;AppModule</title>
<path fill="none" stroke="black" d="M4056,-85.02C4056,-103.63 4056,-129.8 4056,-129.8 4056,-129.8 2742.97,-129.8 2742.97,-129.8"/>
<polygon fill="black" stroke="black" points="2742.97,-126.3 2732.97,-129.8 2742.97,-133.3 2742.97,-126.3"/>
</g>
<!-- IsUserInLikedListOfMessagePipe -->
<g id="node12" class="node">
<title>IsUserInLikedListOfMessagePipe</title>
<polygon fill="#ffffb3" stroke="black" points="3960.79,-84.8 3753.21,-84.8 3753.21,-48.8 3960.79,-48.8 3960.79,-84.8"/>
<text text-anchor="middle" x="3857" y="-62.6" font-family="Times,serif" font-size="14.00">IsUserInLikedListOfMessagePipe</text>
</g>
<!-- IsUserInLikedListOfMessagePipe&#45;&gt;AppModule -->
<g id="edge12" class="edge">
<title>IsUserInLikedListOfMessagePipe&#45;&gt;AppModule</title>
<path fill="none" stroke="black" d="M3857,-85.1C3857,-103.07 3857,-127.8 3857,-127.8 3857,-127.8 2742.84,-127.8 2742.84,-127.8"/>
<polygon fill="black" stroke="black" points="2742.84,-124.3 2732.84,-127.8 2742.84,-131.3 2742.84,-124.3"/>
</g>
<!-- IsUserInLikedListPipe -->
<g id="node13" class="node">
<title>IsUserInLikedListPipe</title>
<polygon fill="#ffffb3" stroke="black" points="3735.53,-84.8 3592.47,-84.8 3592.47,-48.8 3735.53,-48.8 3735.53,-84.8"/>
<text text-anchor="middle" x="3664" y="-62.6" font-family="Times,serif" font-size="14.00">IsUserInLikedListPipe</text>
</g>
<!-- IsUserInLikedListPipe&#45;&gt;AppModule -->
<g id="edge13" class="edge">
<title>IsUserInLikedListPipe&#45;&gt;AppModule</title>
<path fill="none" stroke="black" d="M3664,-84.82C3664,-102.17 3664,-125.8 3664,-125.8 3664,-125.8 2742.81,-125.8 2742.81,-125.8"/>
<polygon fill="black" stroke="black" points="2742.81,-122.3 2732.81,-125.8 2742.81,-129.3 2742.81,-122.3"/>
</g>
<!-- LeaderboardComponent -->
<g id="node14" class="node">
<title>LeaderboardComponent</title>
<polygon fill="#ffffb3" stroke="black" points="3574.06,-84.8 3421.94,-84.8 3421.94,-48.8 3574.06,-48.8 3574.06,-84.8"/>
<text text-anchor="middle" x="3498" y="-62.6" font-family="Times,serif" font-size="14.00">LeaderboardComponent</text>
</g>
<!-- LeaderboardComponent&#45;&gt;AppModule -->
<g id="edge14" class="edge">
<title>LeaderboardComponent&#45;&gt;AppModule</title>
<path fill="none" stroke="black" d="M3498,-84.84C3498,-101.53 3498,-123.8 3498,-123.8 3498,-123.8 2742.69,-123.8 2742.69,-123.8"/>
<polygon fill="black" stroke="black" points="2742.69,-120.3 2732.69,-123.8 2742.69,-127.3 2742.69,-120.3"/>
</g>
<!-- LoginComponent -->
<g id="node15" class="node">
<title>LoginComponent</title>
<polygon fill="#ffffb3" stroke="black" points="3404.27,-84.8 3289.73,-84.8 3289.73,-48.8 3404.27,-48.8 3404.27,-84.8"/>
<text text-anchor="middle" x="3347" y="-62.6" font-family="Times,serif" font-size="14.00">LoginComponent</text>
</g>
<!-- LoginComponent&#45;&gt;AppModule -->
<g id="edge15" class="edge">
<title>LoginComponent&#45;&gt;AppModule</title>
<path fill="none" stroke="black" d="M3347,-84.81C3347,-100.85 3347,-121.8 3347,-121.8 3347,-121.8 2742.78,-121.8 2742.78,-121.8"/>
<polygon fill="black" stroke="black" points="2742.78,-118.3 2732.78,-121.8 2742.78,-125.3 2742.78,-118.3"/>
</g>
<!-- NewsPageComponent -->
<g id="node16" class="node">
<title>NewsPageComponent</title>
<polygon fill="#ffffb3" stroke="black" points="3271.43,-84.8 3130.57,-84.8 3130.57,-48.8 3271.43,-48.8 3271.43,-84.8"/>
<text text-anchor="middle" x="3201" y="-62.6" font-family="Times,serif" font-size="14.00">NewsPageComponent</text>
</g>
<!-- NewsPageComponent&#45;&gt;AppModule -->
<g id="edge16" class="edge">
<title>NewsPageComponent&#45;&gt;AppModule</title>
<path fill="none" stroke="black" d="M3201,-85.04C3201,-100.37 3201,-119.8 3201,-119.8 3201,-119.8 2742.74,-119.8 2742.74,-119.8"/>
<polygon fill="black" stroke="black" points="2742.74,-116.3 2732.74,-119.8 2742.74,-123.3 2742.74,-116.3"/>
</g>
<!-- PluralPipe -->
<g id="node17" class="node">
<title>PluralPipe</title>
<polygon fill="#ffffb3" stroke="black" points="3113.33,-84.8 3038.67,-84.8 3038.67,-48.8 3113.33,-48.8 3113.33,-84.8"/>
<text text-anchor="middle" x="3076" y="-62.6" font-family="Times,serif" font-size="14.00">PluralPipe</text>
</g>
<!-- PluralPipe&#45;&gt;AppModule -->
<g id="edge17" class="edge">
<title>PluralPipe&#45;&gt;AppModule</title>
<path fill="none" stroke="black" d="M3076,-84.92C3076,-99.58 3076,-117.8 3076,-117.8 3076,-117.8 2742.93,-117.8 2742.93,-117.8"/>
<polygon fill="black" stroke="black" points="2742.93,-114.3 2732.93,-117.8 2742.93,-121.3 2742.93,-114.3"/>
</g>
<!-- PollsPageComponent -->
<g id="node18" class="node">
<title>PollsPageComponent</title>
<polygon fill="#ffffb3" stroke="black" points="3021.06,-84.8 2884.94,-84.8 2884.94,-48.8 3021.06,-48.8 3021.06,-84.8"/>
<text text-anchor="middle" x="2953" y="-62.6" font-family="Times,serif" font-size="14.00">PollsPageComponent</text>
</g>
<!-- PollsPageComponent&#45;&gt;AppModule -->
<g id="edge18" class="edge">
<title>PollsPageComponent&#45;&gt;AppModule</title>
<path fill="none" stroke="black" d="M2953,-85.05C2953,-98.98 2953,-115.8 2953,-115.8 2953,-115.8 2742.8,-115.8 2742.8,-115.8"/>
<polygon fill="black" stroke="black" points="2742.8,-112.3 2732.8,-115.8 2742.8,-119.3 2742.8,-112.3"/>
</g>
<!-- ReturnCurrentMatchIdPipe -->
<g id="node19" class="node">
<title>ReturnCurrentMatchIdPipe</title>
<polygon fill="#ffffb3" stroke="black" points="2866.69,-84.8 2697.31,-84.8 2697.31,-48.8 2866.69,-48.8 2866.69,-84.8"/>
<text text-anchor="middle" x="2782" y="-62.6" font-family="Times,serif" font-size="14.00">ReturnCurrentMatchIdPipe</text>
</g>
<!-- ReturnCurrentMatchIdPipe&#45;&gt;AppModule -->
<g id="edge19" class="edge">
<title>ReturnCurrentMatchIdPipe&#45;&gt;AppModule</title>
<path fill="none" stroke="black" d="M2715.12,-84.91C2715.12,-84.91 2715.12,-103.79 2715.12,-103.79"/>
<polygon fill="black" stroke="black" points="2711.62,-103.79 2715.12,-113.79 2718.62,-103.79 2711.62,-103.79"/>
</g>
<!-- ReturnCurrentMatchPipe -->
<g id="node20" class="node">
<title>ReturnCurrentMatchPipe</title>
<polygon fill="#ffffb3" stroke="black" points="2679.53,-84.8 2522.47,-84.8 2522.47,-48.8 2679.53,-48.8 2679.53,-84.8"/>
<text text-anchor="middle" x="2601" y="-62.6" font-family="Times,serif" font-size="14.00">ReturnCurrentMatchPipe</text>
</g>
<!-- ReturnCurrentMatchPipe&#45;&gt;AppModule -->
<g id="edge20" class="edge">
<title>ReturnCurrentMatchPipe&#45;&gt;AppModule</title>
<path fill="none" stroke="black" d="M2664.47,-84.91C2664.47,-84.91 2664.47,-103.79 2664.47,-103.79"/>
<polygon fill="black" stroke="black" points="2660.97,-103.79 2664.47,-113.79 2667.97,-103.79 2660.97,-103.79"/>
</g>
<!-- ReturnFinishedMatchPipe -->
<g id="node21" class="node">
<title>ReturnFinishedMatchPipe</title>
<polygon fill="#ffffb3" stroke="black" points="2504.49,-84.8 2341.51,-84.8 2341.51,-48.8 2504.49,-48.8 2504.49,-84.8"/>
<text text-anchor="middle" x="2423" y="-62.6" font-family="Times,serif" font-size="14.00">ReturnFinishedMatchPipe</text>
</g>
<!-- ReturnFinishedMatchPipe&#45;&gt;AppModule -->
<g id="edge21" class="edge">
<title>ReturnFinishedMatchPipe&#45;&gt;AppModule</title>
<path fill="none" stroke="black" d="M2423,-85.05C2423,-98.98 2423,-115.8 2423,-115.8 2423,-115.8 2639.12,-115.8 2639.12,-115.8"/>
<polygon fill="black" stroke="black" points="2639.13,-119.3 2649.12,-115.8 2639.12,-112.3 2639.13,-119.3"/>
</g>
<!-- ReturnIfXthPipe -->
<g id="node22" class="node">
<title>ReturnIfXthPipe</title>
<polygon fill="#ffffb3" stroke="black" points="2323.82,-84.8 2214.18,-84.8 2214.18,-48.8 2323.82,-48.8 2323.82,-84.8"/>
<text text-anchor="middle" x="2269" y="-62.6" font-family="Times,serif" font-size="14.00">ReturnIfXthPipe</text>
</g>
<!-- ReturnIfXthPipe&#45;&gt;AppModule -->
<g id="edge22" class="edge">
<title>ReturnIfXthPipe&#45;&gt;AppModule</title>
<path fill="none" stroke="black" d="M2269,-84.92C2269,-99.58 2269,-117.8 2269,-117.8 2269,-117.8 2638.99,-117.8 2638.99,-117.8"/>
<polygon fill="black" stroke="black" points="2638.99,-121.3 2648.99,-117.8 2638.99,-114.3 2638.99,-121.3"/>
</g>
<!-- ReturnRankUserPipe -->
<g id="node23" class="node">
<title>ReturnRankUserPipe</title>
<polygon fill="#ffffb3" stroke="black" points="2196.48,-84.8 2061.52,-84.8 2061.52,-48.8 2196.48,-48.8 2196.48,-84.8"/>
<text text-anchor="middle" x="2129" y="-62.6" font-family="Times,serif" font-size="14.00">ReturnRankUserPipe</text>
</g>
<!-- ReturnRankUserPipe&#45;&gt;AppModule -->
<g id="edge23" class="edge">
<title>ReturnRankUserPipe&#45;&gt;AppModule</title>
<path fill="none" stroke="black" d="M2129,-85.04C2129,-100.37 2129,-119.8 2129,-119.8 2129,-119.8 2639.22,-119.8 2639.22,-119.8"/>
<polygon fill="black" stroke="black" points="2639.22,-123.3 2649.22,-119.8 2639.22,-116.3 2639.22,-123.3"/>
</g>
<!-- ReturnSizePipe -->
<g id="node24" class="node">
<title>ReturnSizePipe</title>
<polygon fill="#ffffb3" stroke="black" points="2043.6,-84.8 1940.4,-84.8 1940.4,-48.8 2043.6,-48.8 2043.6,-84.8"/>
<text text-anchor="middle" x="1992" y="-62.6" font-family="Times,serif" font-size="14.00">ReturnSizePipe</text>
</g>
<!-- ReturnSizePipe&#45;&gt;AppModule -->
<g id="edge24" class="edge">
<title>ReturnSizePipe&#45;&gt;AppModule</title>
<path fill="none" stroke="black" d="M1992,-84.81C1992,-100.85 1992,-121.8 1992,-121.8 1992,-121.8 2639.11,-121.8 2639.11,-121.8"/>
<polygon fill="black" stroke="black" points="2639.11,-125.3 2649.11,-121.8 2639.11,-118.3 2639.11,-125.3"/>
</g>
<!-- ReturnUserPipe -->
<g id="node25" class="node">
<title>ReturnUserPipe</title>
<polygon fill="#ffffb3" stroke="black" points="1922.93,-84.8 1817.07,-84.8 1817.07,-48.8 1922.93,-48.8 1922.93,-84.8"/>
<text text-anchor="middle" x="1870" y="-62.6" font-family="Times,serif" font-size="14.00">ReturnUserPipe</text>
</g>
<!-- ReturnUserPipe&#45;&gt;AppModule -->
<g id="edge25" class="edge">
<title>ReturnUserPipe&#45;&gt;AppModule</title>
<path fill="none" stroke="black" d="M1870,-84.84C1870,-101.53 1870,-123.8 1870,-123.8 1870,-123.8 2639.16,-123.8 2639.16,-123.8"/>
<polygon fill="black" stroke="black" points="2639.16,-127.3 2649.16,-123.8 2639.16,-120.3 2639.16,-127.3"/>
</g>
<!-- ReturnXthPipe -->
<g id="node26" class="node">
<title>ReturnXthPipe</title>
<polygon fill="#ffffb3" stroke="black" points="1798.99,-84.8 1699.01,-84.8 1699.01,-48.8 1798.99,-48.8 1798.99,-84.8"/>
<text text-anchor="middle" x="1749" y="-62.6" font-family="Times,serif" font-size="14.00">ReturnXthPipe</text>
</g>
<!-- ReturnXthPipe&#45;&gt;AppModule -->
<g id="edge26" class="edge">
<title>ReturnXthPipe&#45;&gt;AppModule</title>
<path fill="none" stroke="black" d="M1749,-84.82C1749,-102.17 1749,-125.8 1749,-125.8 1749,-125.8 2639.31,-125.8 2639.31,-125.8"/>
<polygon fill="black" stroke="black" points="2639.31,-129.3 2649.31,-125.8 2639.31,-122.3 2639.31,-129.3"/>
</g>
<!-- SignupComponent -->
<g id="node27" class="node">
<title>SignupComponent</title>
<polygon fill="#ffffb3" stroke="black" points="1680.51,-84.8 1559.49,-84.8 1559.49,-48.8 1680.51,-48.8 1680.51,-84.8"/>
<text text-anchor="middle" x="1620" y="-62.6" font-family="Times,serif" font-size="14.00">SignupComponent</text>
</g>
<!-- SignupComponent&#45;&gt;AppModule -->
<g id="edge27" class="edge">
<title>SignupComponent&#45;&gt;AppModule</title>
<path fill="none" stroke="black" d="M1620,-85.1C1620,-103.07 1620,-127.8 1620,-127.8 1620,-127.8 2639.02,-127.8 2639.02,-127.8"/>
<polygon fill="black" stroke="black" points="2639.02,-131.3 2649.02,-127.8 2639.02,-124.3 2639.02,-131.3"/>
</g>
<!-- SortByDatePipe -->
<g id="node28" class="node">
<title>SortByDatePipe</title>
<polygon fill="#ffffb3" stroke="black" points="1541.49,-84.8 1434.51,-84.8 1434.51,-48.8 1541.49,-48.8 1541.49,-84.8"/>
<text text-anchor="middle" x="1488" y="-62.6" font-family="Times,serif" font-size="14.00">SortByDatePipe</text>
</g>
<!-- SortByDatePipe&#45;&gt;AppModule -->
<g id="edge28" class="edge">
<title>SortByDatePipe&#45;&gt;AppModule</title>
<path fill="none" stroke="black" d="M1488,-85.02C1488,-103.63 1488,-129.8 1488,-129.8 1488,-129.8 2639.24,-129.8 2639.24,-129.8"/>
<polygon fill="black" stroke="black" points="2639.24,-133.3 2649.24,-129.8 2639.24,-126.3 2639.24,-133.3"/>
</g>
<!-- SortDateDescendingPipe -->
<g id="node29" class="node">
<title>SortDateDescendingPipe</title>
<polygon fill="#ffffb3" stroke="black" points="1416.25,-84.8 1259.75,-84.8 1259.75,-48.8 1416.25,-48.8 1416.25,-84.8"/>
<text text-anchor="middle" x="1338" y="-62.6" font-family="Times,serif" font-size="14.00">SortDateDescendingPipe</text>
</g>
<!-- SortDateDescendingPipe&#45;&gt;AppModule -->
<g id="edge29" class="edge">
<title>SortDateDescendingPipe&#45;&gt;AppModule</title>
<path fill="none" stroke="black" d="M1338,-84.91C1338,-104.14 1338,-131.8 1338,-131.8 1338,-131.8 2639.02,-131.8 2639.02,-131.8"/>
<polygon fill="black" stroke="black" points="2639.02,-135.3 2649.02,-131.8 2639.02,-128.3 2639.02,-135.3"/>
</g>
<!-- SortTeamFirstPipe -->
<g id="node30" class="node">
<title>SortTeamFirstPipe</title>
<polygon fill="#ffffb3" stroke="black" points="1241.77,-84.8 1120.23,-84.8 1120.23,-48.8 1241.77,-48.8 1241.77,-84.8"/>
<text text-anchor="middle" x="1181" y="-62.6" font-family="Times,serif" font-size="14.00">SortTeamFirstPipe</text>
</g>
<!-- SortTeamFirstPipe&#45;&gt;AppModule -->
<g id="edge30" class="edge">
<title>SortTeamFirstPipe&#45;&gt;AppModule</title>
<path fill="none" stroke="black" d="M1181,-84.83C1181,-104.38 1181,-132.8 1181,-132.8 1181,-132.8 2639.04,-132.8 2639.04,-132.8"/>
<polygon fill="black" stroke="black" points="2639.04,-136.3 2649.04,-132.8 2639.04,-129.3 2639.04,-136.3"/>
</g>
<!-- ToDatePipe -->
<g id="node31" class="node">
<title>ToDatePipe</title>
<polygon fill="#ffffb3" stroke="black" points="1102.37,-84.8 1019.63,-84.8 1019.63,-48.8 1102.37,-48.8 1102.37,-84.8"/>
<text text-anchor="middle" x="1061" y="-62.6" font-family="Times,serif" font-size="14.00">ToDatePipe</text>
</g>
<!-- ToDatePipe&#45;&gt;AppModule -->
<g id="edge31" class="edge">
<title>ToDatePipe&#45;&gt;AppModule</title>
<path fill="none" stroke="black" d="M1061,-85.02C1061,-105.17 1061,-134.8 1061,-134.8 1061,-134.8 2639.07,-134.8 2639.07,-134.8"/>
<polygon fill="black" stroke="black" points="2639.07,-138.3 2649.07,-134.8 2639.07,-131.3 2639.07,-138.3"/>
</g>
<!-- ToDatePipe2 -->
<g id="node32" class="node">
<title>ToDatePipe2</title>
<polygon fill="#ffffb3" stroke="black" points="1001.87,-84.8 912.13,-84.8 912.13,-48.8 1001.87,-48.8 1001.87,-84.8"/>
<text text-anchor="middle" x="957" y="-62.6" font-family="Times,serif" font-size="14.00">ToDatePipe2</text>
</g>
<!-- ToDatePipe2&#45;&gt;AppModule -->
<g id="edge32" class="edge">
<title>ToDatePipe2&#45;&gt;AppModule</title>
<path fill="none" stroke="black" d="M957,-84.83C957,-105.57 957,-136.8 957,-136.8 957,-136.8 2639,-136.8 2639,-136.8"/>
<polygon fill="black" stroke="black" points="2639,-140.3 2649,-136.8 2639,-133.3 2639,-140.3"/>
</g>
<!-- TransformPipe -->
<g id="node33" class="node">
<title>TransformPipe</title>
<polygon fill="#ffffb3" stroke="black" points="893.98,-84.8 794.02,-84.8 794.02,-48.8 893.98,-48.8 893.98,-84.8"/>
<text text-anchor="middle" x="844" y="-62.6" font-family="Times,serif" font-size="14.00">TransformPipe</text>
</g>
<!-- TransformPipe&#45;&gt;AppModule -->
<g id="edge33" class="edge">
<title>TransformPipe&#45;&gt;AppModule</title>
<path fill="none" stroke="black" d="M844,-84.97C844,-106.3 844,-138.8 844,-138.8 844,-138.8 2638.95,-138.8 2638.95,-138.8"/>
<polygon fill="black" stroke="black" points="2638.95,-142.3 2648.95,-138.8 2638.95,-135.3 2638.95,-142.3"/>
</g>
<!-- UidContainsListPipe -->
<g id="node34" class="node">
<title>UidContainsListPipe</title>
<polygon fill="#ffffb3" stroke="black" points="775.95,-84.8 642.05,-84.8 642.05,-48.8 775.95,-48.8 775.95,-84.8"/>
<text text-anchor="middle" x="709" y="-62.6" font-family="Times,serif" font-size="14.00">UidContainsListPipe</text>
</g>
<!-- UidContainsListPipe&#45;&gt;AppModule -->
<g id="edge34" class="edge">
<title>UidContainsListPipe&#45;&gt;AppModule</title>
<path fill="none" stroke="black" d="M709,-85.09C709,-107.01 709,-140.8 709,-140.8 709,-140.8 2639.15,-140.8 2639.15,-140.8"/>
<polygon fill="black" stroke="black" points="2639.15,-144.3 2649.15,-140.8 2639.15,-137.3 2639.15,-144.3"/>
</g>
<!-- UserDetailComponent -->
<g id="node35" class="node">
<title>UserDetailComponent</title>
<polygon fill="#ffffb3" stroke="black" points="623.97,-84.8 482.03,-84.8 482.03,-48.8 623.97,-48.8 623.97,-84.8"/>
<text text-anchor="middle" x="553" y="-62.6" font-family="Times,serif" font-size="14.00">UserDetailComponent</text>
</g>
<!-- UserDetailComponent&#45;&gt;AppModule -->
<g id="edge35" class="edge">
<title>UserDetailComponent&#45;&gt;AppModule</title>
<path fill="none" stroke="black" d="M553,-84.81C553,-107.29 553,-142.8 553,-142.8 553,-142.8 2639.25,-142.8 2639.25,-142.8"/>
<polygon fill="black" stroke="black" points="2639.25,-146.3 2649.25,-142.8 2639.25,-139.3 2639.25,-146.3"/>
</g>
<!-- UserProfileComponent -->
<g id="node36" class="node">
<title>UserProfileComponent</title>
<polygon fill="#ffffb3" stroke="black" points="463.87,-84.8 318.13,-84.8 318.13,-48.8 463.87,-48.8 463.87,-84.8"/>
<text text-anchor="middle" x="391" y="-62.6" font-family="Times,serif" font-size="14.00">UserProfileComponent</text>
</g>
<!-- UserProfileComponent&#45;&gt;AppModule -->
<g id="edge36" class="edge">
<title>UserProfileComponent&#45;&gt;AppModule</title>
<path fill="none" stroke="black" d="M391,-84.89C391,-107.93 391,-144.8 391,-144.8 391,-144.8 2639.12,-144.8 2639.12,-144.8"/>
<polygon fill="black" stroke="black" points="2639.12,-148.3 2649.12,-144.8 2639.12,-141.3 2639.12,-148.3"/>
</g>
<!-- AppComponent  -->
<g id="node39" class="node">
<title>AppComponent </title>
<polygon fill="#80b1d3" stroke="black" points="2745.44,-214.8 2636.56,-214.8 2636.56,-178.8 2745.44,-178.8 2745.44,-214.8"/>
<text text-anchor="middle" x="2691" y="-192.6" font-family="Times,serif" font-size="14.00">AppComponent </text>
</g>
<!-- AppModule&#45;&gt;AppComponent  -->
<g id="edge38" class="edge">
<title>AppModule&#45;&gt;AppComponent </title>
<path fill="none" stroke="black" stroke-dasharray="1,5" d="M2691,-149.91C2691,-149.91 2691,-168.79 2691,-168.79"/>
<polygon fill="black" stroke="black" points="2687.5,-168.79 2691,-178.79 2694.5,-168.79 2687.5,-168.79"/>
</g>
<!-- AppRoutingModule -->
<g id="node38" class="node">
<title>AppRoutingModule</title>
<polygon fill="#8dd3c7" stroke="black" points="294.28,-84.8 291.28,-88.8 270.28,-88.8 267.28,-84.8 165.72,-84.8 165.72,-48.8 294.28,-48.8 294.28,-84.8"/>
<text text-anchor="middle" x="230" y="-62.6" font-family="Times,serif" font-size="14.00">AppRoutingModule</text>
</g>
<!-- AppRoutingModule&#45;&gt;AppModule -->
<g id="edge37" class="edge">
<title>AppRoutingModule&#45;&gt;AppModule</title>
<path fill="none" stroke="black" d="M230,-84.95C230,-108.56 230,-146.8 230,-146.8 230,-146.8 2639.32,-146.8 2639.32,-146.8"/>
<polygon fill="black" stroke="black" points="2639.32,-150.3 2649.32,-146.8 2639.32,-143.3 2639.32,-150.3"/>
</g>
<!-- AuthService -->
<g id="node40" class="node">
<title>AuthService</title>
<ellipse fill="#fdb462" stroke="black" cx="83" cy="-66.8" rx="59.11" ry="18"/>
<text text-anchor="middle" x="83" y="-62.6" font-family="Times,serif" font-size="14.00">AuthService</text>
</g>
<!-- AuthService&#45;&gt;AppModule -->
<g id="edge39" class="edge">
<title>AuthService&#45;&gt;AppModule</title>
<path fill="none" stroke="black" d="M83,-85C83,-109.16 83,-148.8 83,-148.8 83,-148.8 2639.24,-148.8 2639.24,-148.8"/>
<polygon fill="black" stroke="black" points="2639.24,-152.3 2649.24,-148.8 2639.24,-145.3 2639.24,-152.3"/>
</g>
</g>
</svg>
